<svg height="512pt" viewBox="-34 0 512 512" width="512pt" xmlns="http://www.w3.org/2000/svg"><path d="m428.691406 256c0 114.324219-92.675781 207-207 207-114.320312 0-207-92.675781-207-207s92.679688-207 207-207c114.324219 0 207 92.675781 207 207zm0 0" fill="#f0c48a"/><path d="m398.074219 474.402344h-319.039063c-21.785156 0-39.449218-17.660156-39.449218-39.449219v-389.644531c0-21.785156 17.660156-39.445313 39.449218-39.445313h319.042969c21.785156 0 39.445313 17.660157 39.445313 39.445313v389.644531c0 21.789063-17.660157 39.449219-39.449219 39.449219zm0 0" fill="#7babf1"/><path d="m398.074219 480.265625h-319.039063c-24.984375 0-45.3125-20.328125-45.3125-45.3125v-389.640625c0-24.988281 20.328125-45.3125 45.3125-45.3125h319.039063c24.984375 0 45.3125 20.324219 45.3125 45.3125v389.640625c0 24.984375-20.328125 45.3125-45.3125 45.3125zm-319.039063-468.539063c-18.519531 0-33.585937 15.0625-33.585937 33.582032v389.644531c0 18.519531 15.066406 33.585937 33.585937 33.585937h319.039063c18.519531 0 33.585937-15.066406 33.585937-33.585937v-389.640625c0-18.519531-15.066406-33.585938-33.585937-33.585938zm0 0" fill="#4c4372"/><path d="m364.351562 506.136719h-319.042968c-21.785156 0-39.445313-17.660157-39.445313-39.449219v-389.640625c0-21.785156 17.660157-39.449219 39.445313-39.449219h319.042968c21.785157 0 39.449219 17.660156 39.449219 39.449219v389.644531c0 21.785156-17.664062 39.445313-39.449219 39.445313zm0 0" fill="#fff"/><path d="m379.113281 503.269531c14.472657-5.84375 24.6875-20.015625 24.6875-36.578125v-346.660156h-24.6875zm0 0" fill="#d3e6f8"/><path d="m364.351562 37.597656h-319.039062c-21.789062 0-39.449219 17.660156-39.449219 39.449219v42.984375h397.9375v-42.984375c0-21.789063-17.664062-39.449219-39.449219-39.449219zm0 0" fill="#d3e6f8"/><path d="m379.113281 40.464844v79.566406h24.6875v-42.984375c0-16.566406-10.214843-30.738281-24.6875-36.582031zm0 0" fill="#7babf1"/><path d="m61.386719 79.164062c0 8.324219-6.75 15.074219-15.074219 15.074219s-15.074219-6.75-15.074219-15.074219c0-8.328124 6.75-15.074218 15.074219-15.074218s15.074219 6.746094 15.074219 15.074218zm0 0" fill="#7babf1"/><path d="m109.535156 79.164062c0 8.324219-6.746094 15.074219-15.074218 15.074219-8.324219 0-15.074219-6.75-15.074219-15.074219 0-8.328124 6.75-15.074218 15.074219-15.074218 8.328124 0 15.074218 6.746094 15.074218 15.074218zm0 0" fill="#fff"/><path d="m157.6875 79.164062c0 8.324219-6.75 15.074219-15.074219 15.074219-8.328125 0-15.074219-6.75-15.074219-15.074219 0-8.328124 6.746094-15.074218 15.074219-15.074218 8.324219 0 15.074219 6.746094 15.074219 15.074218zm0 0" fill="#fd919e"/><g fill="#4c4372"><path d="m364.351562 512h-319.039062c-24.984375 0-45.3125-20.324219-45.3125-45.3125v-389.640625c0-24.984375 20.324219-45.3125 45.3125-45.3125h319.039062c24.984376 0 45.3125 20.328125 45.3125 45.3125v389.644531c0 24.984375-20.328124 45.308594-45.3125 45.308594zm-319.039062-468.539062c-18.519531 0-33.585938 15.066406-33.585938 33.585937v389.640625c0 18.519531 15.066407 33.585938 33.585938 33.585938h319.039062c18.519532 0 33.585938-15.066407 33.585938-33.585938v-389.640625c0-18.519531-15.066406-33.585937-33.585938-33.585937zm0 0"/><path d="m403.800781 125.894531h-397.9375c-3.238281 0-5.863281-2.625-5.863281-5.863281s2.625-5.863281 5.863281-5.863281h397.9375c3.238281 0 5.863281 2.625 5.863281 5.863281s-2.625 5.863281-5.863281 5.863281zm0 0"/><path d="m46.3125 100.097656c-11.542969 0-20.9375-9.390625-20.9375-20.933594 0-11.546874 9.390625-20.9375 20.9375-20.9375 11.542969 0 20.933594 9.390626 20.933594 20.9375 0 11.542969-9.390625 20.933594-20.933594 20.933594zm0-30.148437c-5.078125 0-9.210938 4.132812-9.210938 9.210937 0 5.082032 4.132813 9.210938 9.210938 9.210938s9.210938-4.128906 9.210938-9.210938c0-5.074218-4.132813-9.210937-9.210938-9.210937zm0 0"/><path d="m94.460938 100.097656c-11.542969 0-20.933594-9.390625-20.933594-20.933594 0-11.546874 9.390625-20.9375 20.933594-20.9375 11.546874 0 20.9375 9.390626 20.9375 20.9375 0 11.542969-9.390626 20.933594-20.9375 20.933594zm0-30.148437c-5.078126 0-9.210938 4.132812-9.210938 9.210937 0 5.082032 4.132812 9.210938 9.210938 9.210938 5.078124 0 9.210937-4.128906 9.210937-9.210938 0-5.074218-4.132813-9.210937-9.210937-9.210937zm0 0"/><path d="m142.613281 100.097656c-11.546875 0-20.9375-9.390625-20.9375-20.933594 0-11.546874 9.390625-20.9375 20.9375-20.9375 11.542969 0 20.9375 9.390626 20.9375 20.9375 0 11.542969-9.394531 20.933594-20.9375 20.933594zm0-30.148437c-5.082031 0-9.210937 4.132812-9.210937 9.210937 0 5.082032 4.128906 9.210938 9.210937 9.210938 5.078125 0 9.210938-4.128906 9.210938-9.210938 0-5.074218-4.132813-9.210937-9.210938-9.210937zm0 0"/></g><path d="m321.265625 332.992188v-33.75h-29.800781c-2.289063-11.832032-6.929688-22.824219-13.433594-32.460938l21.0625-21.0625-23.863281-23.863281-21.0625 21.0625c-9.636719-6.507813-20.632813-11.144531-32.464844-13.433594v-29.800781h-33.746094v29.800781c-11.832031 2.289063-22.824219 6.925781-32.460937 13.433594l-21.0625-21.0625-23.867188 23.863281 21.066406 21.0625c-6.507812 9.632812-11.144531 20.628906-13.4375 32.460938h-29.796874v33.75h29.796874c2.292969 11.832031 6.929688 22.824218 13.4375 32.460937l-21.066406 21.0625 23.867188 23.867187 21.0625-21.066406c9.632812 6.507813 20.628906 11.144532 32.460937 13.4375v29.796875h33.746094v-29.796875c11.832031-2.292968 22.828125-6.929687 32.464844-13.4375l21.0625 21.066406 23.863281-23.867187-21.0625-21.0625c6.503906-9.636719 11.144531-20.628906 13.433594-32.460937zm-116.996094 26.320312c-23.855469 0-43.195312-19.339844-43.195312-43.195312 0-23.855469 19.339843-43.191407 43.195312-43.191407s43.191407 19.335938 43.191407 43.191407c0 23.855468-19.335938 43.195312-43.191407 43.195312zm0 0" fill="#fd919e"/><path d="m204.269531 365.175781c-27.050781 0-49.058593-22.007812-49.058593-49.058593 0-27.046876 22.007812-49.054688 49.058593-49.054688 27.046875 0 49.054688 22.007812 49.054688 49.054688 0 27.050781-22.007813 49.058593-49.054688 49.058593zm0-86.390625c-20.585937 0-37.332031 16.746094-37.332031 37.332032 0 20.582031 16.746094 37.332031 37.332031 37.332031 20.582031 0 37.332031-16.75 37.332031-37.332031 0-20.585938-16.75-37.332032-37.332031-37.332032zm0 0" fill="#4c4372"/><path d="m221.703125 438.414062h-33.746094c-3.238281 0-5.863281-2.625-5.863281-5.863281v-25.085937c-9.117188-2.253906-17.753906-5.832032-25.78125-10.671875l-17.734375 17.734375c-1.097656 1.097656-2.589844 1.714844-4.144531 1.714844-1.554688 0-3.046875-.617188-4.148438-1.714844l-23.863281-23.867188c-2.289063-2.289062-2.289063-6 0-8.289062l17.734375-17.734375c-4.839844-8.027344-8.417969-16.667969-10.667969-25.78125h-25.089843c-3.238282 0-5.863282-2.625-5.863282-5.863281v-33.75c0-3.234376 2.625-5.859376 5.863282-5.859376h25.089843c2.253907-9.117187 5.828125-17.753906 10.667969-25.785156l-17.734375-17.734375c-2.289063-2.289062-2.289063-6 0-8.289062l23.863281-23.863281c2.289063-2.289063 6.003906-2.289063 8.292969 0l17.734375 17.730468c8.027344-4.839844 16.667969-8.414062 25.78125-10.667968v-25.089844c0-3.238282 2.625-5.863282 5.863281-5.863282h33.746094c3.238281 0 5.863281 2.625 5.863281 5.863282v25.089844c9.117188 2.253906 17.753906 5.828124 25.785156 10.667968l17.734376-17.730468c2.285156-2.289063 6-2.289063 8.289062 0l23.863281 23.863281c1.101563 1.097656 1.71875 2.589843 1.71875 4.144531s-.617187 3.046875-1.71875 4.144531l-17.730469 17.734375c4.839844 8.03125 8.414063 16.667969 10.667969 25.785156h25.089844c3.238281 0 5.863281 2.625 5.863281 5.859376v33.75c0 3.238281-2.625 5.863281-5.863281 5.863281h-25.089844c-2.253906 9.117187-5.828125 17.753906-10.667969 25.78125l17.730469 17.734375c1.101563 1.097656 1.71875 2.589844 1.71875 4.144531s-.617187 3.046875-1.714843 4.148437l-23.867188 23.863282c-1.097656 1.101562-2.589844 1.71875-4.144531 1.71875-1.554688 0-3.046875-.617188-4.144531-1.71875l-17.734376-17.734375c-8.03125 4.84375-16.667968 8.417969-25.785156 10.671875v25.085937c0 3.238281-2.625 5.863281-5.863281 5.863281zm-27.882813-11.726562h22.023438v-23.933594c0-2.808594 1.988281-5.222656 4.746094-5.757812 10.914062-2.113282 21.105468-6.332032 30.296875-12.539063 2.328125-1.570312 5.441406-1.273437 7.425781.714844l16.917969 16.917969 15.574219-15.574219-16.917969-16.917969c-1.988281-1.984375-2.285157-5.097656-.714844-7.425781 6.207031-9.191406 10.425781-19.382813 12.539063-30.292969.53125-2.757812 2.945312-4.75 5.753906-4.75h23.9375v-22.023437h-23.9375c-2.808594 0-5.21875-1.992188-5.753906-4.75-2.113282-10.910157-6.332032-21.101563-12.539063-30.292969-1.570313-2.328125-1.273437-5.441406.714844-7.425781l16.917969-16.917969-15.574219-15.574219-16.917969 16.917969c-1.988281 1.984375-5.101562 2.28125-7.425781.710938-9.195313-6.207032-19.386719-10.421876-30.296875-12.535157-2.757813-.535156-4.75-2.949219-4.75-5.757812v-23.9375h-22.023438v23.9375c0 2.808593-1.988281 5.222656-4.746094 5.757812-10.914062 2.113281-21.105468 6.332031-30.296874 12.535157-2.328126 1.574218-5.4375 1.273437-7.425782-.710938l-16.917968-16.917969-15.570313 15.574219 16.917969 16.917969c1.984375 1.984375 2.28125 5.097656.710937 7.425781-6.207031 9.1875-10.421875 19.382812-12.539062 30.292969-.53125 2.757812-2.945313 4.75-5.753907 4.75h-23.9375v22.023437h23.9375c2.808594 0 5.222657 1.992188 5.753907 4.75 2.113281 10.90625 6.332031 21.101563 12.539062 30.292969 1.570313 2.328125 1.273438 5.441406-.710937 7.425781l-16.917969 16.917969 15.570313 15.574219 16.917968-16.917969c1.988282-1.988281 5.101563-2.285156 7.429688-.714844 9.1875 6.207031 19.378906 10.425781 30.292968 12.539063 2.757813.535156 4.746094 2.949218 4.746094 5.757812v23.933594zm0 0" fill="#4c4372"/></svg>