<?xml version="1.0" encoding="iso-8859-1"?>
<!-- Generator: Adobe Illustrator 19.0.0, SVG Export Plug-In . SVG Version: 6.00 Build 0)  -->
<svg xmlns="http://www.w3.org/2000/svg" xmlns:xlink="http://www.w3.org/1999/xlink" version="1.1" id="Capa_1" x="0px" y="0px" viewBox="0 0 511.998 511.998" style="enable-background:new 0 0 511.998 511.998;" xml:space="preserve" width="512px" height="512px">
<g>
	<g>
		<path d="M504.498,153.859c4.143,0,7.5-3.357,7.5-7.5V69.076c0-24.438-19.883-44.321-44.321-44.321H44.321    C19.882,24.755,0,44.638,0,69.076v314.87c0,13.119,10.673,23.792,23.792,23.792H188.31c-4.973,16.918-14.828,37.165-34.359,51.987    c-5.323,4.039-7.385,10.743-5.253,17.078c2.134,6.343,7.836,10.441,14.527,10.441h185.546c6.69,0,12.393-4.099,14.526-10.44    c2.132-6.336,0.069-13.039-5.253-17.079c-19.616-14.886-29.435-35.298-34.353-51.987h61.329c4.143,0,7.5-3.357,7.5-7.5    s-3.357-7.5-7.5-7.5H23.792c-4.848,0-8.792-3.944-8.792-8.792v-45.063h481.998v45.063c0,4.848-3.944,8.792-8.792,8.792h-72.565    c-4.143,0-7.5,3.357-7.5,7.5s3.357,7.5,7.5,7.5h72.565c13.119,0,23.792-10.673,23.792-23.792V176.978c0-4.143-3.357-7.5-7.5-7.5    s-7.5,3.357-7.5,7.5v146.904H15V69.076c0-16.168,13.153-29.321,29.321-29.321h423.355c16.168,0,29.321,13.153,29.321,29.321    v77.284C496.998,150.503,500.355,153.859,504.498,153.859z M308.128,407.736c5.137,19.694,16.355,45.348,40.85,63.938    c0.098,0.073,0.131,0.119,0.133,0.119c0.03,0.108-0.061,0.37-0.146,0.43c0,0.001-0.053,0.021-0.191,0.021H163.226    c-0.132,0-0.186-0.019-0.188-0.019c-0.09-0.063-0.181-0.326-0.154-0.424c0-0.001,0.03-0.048,0.136-0.128    c24.362-18.488,35.639-43.9,40.855-63.937H308.128z" fill="#FFFFFF"/>
	</g>
</g>
<g>
	<g>
		<path d="M255.999,347.136c-10.296,0-18.673,8.377-18.673,18.674c0,10.296,8.377,18.673,18.673,18.673s18.673-8.377,18.673-18.673    C274.672,355.513,266.295,347.136,255.999,347.136z M255.999,369.483c-2.026,0-3.673-1.647-3.673-3.673s1.648-3.674,3.673-3.674    c2.025,0,3.673,1.648,3.673,3.674C259.672,367.835,258.025,369.483,255.999,369.483z" fill="#FFFFFF"/>
	</g>
</g>
<g>
	<g>
		<path d="M335.28,102.362H176.716c-9.073,0-16.454,7.381-16.454,16.454v122.739c0,9.073,7.381,16.454,16.454,16.454h31.64    c4.142,0,7.5-3.357,7.5-7.5s-3.358-7.5-7.5-7.5h-31.64c-0.802,0-1.454-0.652-1.454-1.454V118.816c0-0.802,0.652-1.454,1.454-1.454    h158.563c0.803,0,1.455,0.652,1.455,1.454v122.739c0,0.802-0.652,1.454-1.455,1.454h-96.306c-4.141,0.001-7.499,3.358-7.499,7.501    s3.358,7.5,7.5,7.5h96.306c9.073,0,16.455-7.381,16.455-16.454v-122.74C351.735,109.743,344.353,102.362,335.28,102.362z" fill="#FFFFFF"/>
	</g>
</g>
<g>
	<g>
		<path d="M311.317,135.599H252.07c-4.142,0-7.5,3.357-7.5,7.5s3.358,7.5,7.5,7.5h40.562l-49.019,49.019    c-2.929,2.929-2.929,7.677,0,10.607c1.464,1.464,3.384,2.196,5.303,2.196s3.839-0.732,5.303-2.196l49.598-49.597v41.719    c0,4.143,3.357,7.5,7.5,7.5s7.5-3.357,7.5-7.5v-59.248C318.817,138.956,315.46,135.599,311.317,135.599z" fill="#FFFFFF"/>
	</g>
</g>
<g>
	<g>
		<path d="M387.447,230.768c-4.143,0-7.5,3.357-7.5,7.5v44.864h-51.095c-4.143,0-7.5,3.357-7.5,7.5s3.357,7.5,7.5,7.5h58.595    c4.143,0,7.5-3.357,7.5-7.5v-52.364C394.947,234.125,391.59,230.768,387.447,230.768z" fill="#FFFFFF"/>
	</g>
</g>
<g>
	<g>
		<path d="M183.145,61.423H124.55c-4.142,0-7.5,3.357-7.5,7.5v52.364c0,4.143,3.358,7.5,7.5,7.5c4.142,0,7.5-3.357,7.5-7.5V76.423    h51.094c4.143,0,7.501-3.358,7.501-7.5C190.645,64.78,187.287,61.423,183.145,61.423z" fill="#FFFFFF"/>
	</g>
</g>
<g>
	<g>
		<path d="M388.863,107.556c-4.143,0-7.5,3.357-7.5,7.5v1.526c0,4.143,3.358,7.5,7.5,7.5c4.143,0,7.5-3.357,7.5-7.5v-1.526    C396.363,110.914,393.006,107.556,388.863,107.556z" fill="#FFFFFF"/>
	</g>
</g>
<g>
	<g>
		<path d="M412.499,107.556c-4.143,0-7.5,3.357-7.5,7.5v1.526c0,4.143,3.357,7.5,7.5,7.5s7.5-3.357,7.5-7.5v-1.526    C419.999,110.914,416.642,107.556,412.499,107.556z" fill="#FFFFFF"/>
	</g>
</g>
<g>
	<g>
		<path d="M418.451,136.771h-35.54c-4.143,0-7.5,3.357-7.5,7.5s3.357,7.5,7.5,7.5h35.54c4.143,0,7.5-3.357,7.5-7.5    S422.594,136.771,418.451,136.771z" fill="#FFFFFF"/>
	</g>
</g>
<g>
	<g>
		<path d="M418.451,159.175h-35.54c-4.143,0-7.5,3.357-7.5,7.5s3.357,7.5,7.5,7.5h35.54c4.143,0,7.5-3.357,7.5-7.5    S422.594,159.175,418.451,159.175z" fill="#FFFFFF"/>
	</g>
</g>
<g>
	<g>
		<path d="M418.451,181.577h-35.54c-4.143,0-7.5,3.357-7.5,7.5s3.357,7.5,7.5,7.5h35.54c4.143,0,7.5-3.357,7.5-7.5    S422.594,181.577,418.451,181.577z" fill="#FFFFFF"/>
	</g>
</g>
<g>
	<g>
		<path d="M99.497,167.636c-4.142,0-7.5,3.357-7.5,7.5v1.526c0,4.143,3.358,7.5,7.5,7.5c4.142,0,7.5-3.357,7.5-7.5v-1.526    C106.997,170.993,103.639,167.636,99.497,167.636z" fill="#FFFFFF"/>
	</g>
</g>
<g>
	<g>
		<path d="M123.133,167.636c-4.142,0-7.5,3.357-7.5,7.5v1.526c0,4.143,3.358,7.5,7.5,7.5c4.142,0,7.5-3.357,7.5-7.5v-1.526    C130.633,170.993,127.275,167.636,123.133,167.636z" fill="#FFFFFF"/>
	</g>
</g>
<g>
	<g>
		<path d="M129.085,196.852h-35.54c-4.142,0-7.5,3.357-7.5,7.5s3.358,7.5,7.5,7.5h35.54c4.142,0,7.5-3.357,7.5-7.5    S133.227,196.852,129.085,196.852z" fill="#FFFFFF"/>
	</g>
</g>
<g>
	<g>
		<path d="M129.085,219.254h-35.54c-4.142,0-7.5,3.357-7.5,7.5s3.358,7.5,7.5,7.5h35.54c4.142,0,7.5-3.357,7.5-7.5    S133.227,219.254,129.085,219.254z" fill="#FFFFFF"/>
	</g>
</g>
<g>
	<g>
		<path d="M129.085,241.656h-35.54c-4.142,0-7.5,3.357-7.5,7.5s3.358,7.5,7.5,7.5h35.54c4.142,0,7.5-3.357,7.5-7.5    S133.227,241.656,129.085,241.656z" fill="#FFFFFF"/>
	</g>
</g>
<g>
</g>
<g>
</g>
<g>
</g>
<g>
</g>
<g>
</g>
<g>
</g>
<g>
</g>
<g>
</g>
<g>
</g>
<g>
</g>
<g>
</g>
<g>
</g>
<g>
</g>
<g>
</g>
<g>
</g>
</svg>
