<?xml version="1.0"?>
<svg xmlns="http://www.w3.org/2000/svg" height="512px" viewBox="0 -25 424 424" width="512px"><g><path d="m213.117188 228.371094c-21.375 0-38.757813-17.386719-38.757813-38.757813 0-21.371093 17.386719-38.757812 38.757813-38.757812 21.371093 0 38.757812 17.386719 38.757812 38.757812 0 21.371094-17.386719 38.757813-38.757812 38.757813zm0-63.515625c-13.652344 0-24.757813 11.105469-24.757813 24.757812 0 13.652344 11.105469 24.757813 24.757813 24.757813 13.648437 0 24.757812-11.105469 24.757812-24.757813 0-13.652343-11.105469-24.757812-24.757812-24.757812zm0 0" data-original="#000000" class="active-path" data-old_color="#000000" fill="#343B4C"/><path d="m263.019531 303.230469h-99.808593c-1.863282 0-3.648438-.742188-4.960938-2.0625-1.316406-1.320313-2.046875-3.109375-2.039062-4.96875.066406-15.203125 6.050781-29.464844 16.847656-40.164063 10.734375-10.640625 24.949218-16.488281 40.050781-16.488281h.261719c31.097656.140625 56.511718 25.554687 56.648437 56.652344.007813 1.859375-.722656 3.648437-2.039062 4.96875-1.3125 1.320312-3.097657 2.0625-4.960938 2.0625zm-92.207031-14h84.597656c-3.449218-20.128907-21.046875-35.585938-42.101562-35.683594-.066406 0-.132813 0-.199219 0-11.386719 0-22.101563 4.410156-30.195313 12.433594-6.449218 6.390625-10.621093 14.46875-12.101562 23.25zm0 0" data-original="#000000" class="active-path" data-old_color="#000000" fill="#343B4C"/><path d="m285.703125 229.917969c-16.59375 0-30.09375-13.5-30.09375-30.097657 0-16.59375 13.5-30.097656 30.09375-30.097656 16.597656 0 30.097656 13.503906 30.097656 30.097656 0 16.597657-13.5 30.097657-30.097656 30.097657zm0-46.191407c-8.875 0-16.09375 7.21875-16.09375 16.09375 0 8.878907 7.21875 16.097657 16.09375 16.097657 8.878906 0 16.097656-7.21875 16.097656-16.097657 0-8.875-7.21875-16.09375-16.097656-16.09375zm0 0" data-original="#000000" class="active-path" data-old_color="#000000" fill="#343B4C"/><path d="m322 284.359375h-62.675781c-3.863281 0-7-3.132813-7-7 0-3.863281 3.136719-7 7-7h54.816406c-2.292969-9.21875-9.015625-17.003906-18.144531-20.429687-15.121094-5.679688-32.050782 2.007812-37.726563 17.132812-1.359375 3.621094-5.390625 5.449219-9.015625 4.09375-3.621094-1.359375-5.453125-5.394531-4.09375-9.015625 8.394532-22.351563 33.40625-33.707031 55.753906-25.316406 16.800782 6.304687 28.085938 22.597656 28.085938 40.535156 0 3.867187-3.132812 7-7 7zm0 0" data-original="#000000" class="active-path" data-old_color="#000000" fill="#343B4C"/><path d="m138.296875 229.917969c-16.597656 0-30.097656-13.5-30.097656-30.097657 0-16.59375 13.5-30.097656 30.097656-30.097656 16.59375 0 30.09375 13.503906 30.09375 30.097656 0 16.597657-13.5 30.097657-30.09375 30.097657zm0-46.191407c-8.878906 0-16.097656 7.21875-16.097656 16.09375 0 8.878907 7.21875 16.097657 16.097656 16.097657 8.875 0 16.09375-7.21875 16.09375-16.097657 0-8.875-7.21875-16.09375-16.09375-16.09375zm0 0" data-original="#000000" class="active-path" data-old_color="#000000" fill="#343B4C"/><path d="m164.675781 284.359375h-62.675781c-3.867188 0-7-3.132813-7-7 0-17.9375 11.285156-34.226563 28.082031-40.535156 22.351563-8.390625 47.363281 2.964843 55.753907 25.316406 1.359374 3.621094-.472657 7.65625-4.09375 9.015625-3.617188 1.355469-7.652344-.472656-9.011719-4.09375-5.679688-15.125-22.601563-22.8125-37.730469-17.132812-9.125 3.425781-15.847656 11.210937-18.140625 20.429687h54.8125c3.867187 0 7 3.136719 7 7 0 3.867187-3.132813 7-6.996094 7zm0 0" data-original="#000000" class="active-path" data-old_color="#000000" fill="#343B4C"/><path d="m377 374.085938h-330c-25.914062 0-47-21.082032-47-47v-280.085938c0-25.914062 21.085938-47 47-47h330c25.914062 0 47 21.085938 47 47v280.085938c0 25.917968-21.085938 47-47 47zm-330-360.085938c-18.195312 0-33 14.804688-33 33v280.085938c0 18.195312 14.804688 33 33 33h330c18.195312 0 33-14.804688 33-33v-280.085938c0-18.195312-14.804688-33-33-33zm0 0" data-original="#000000" class="active-path" data-old_color="#000000" fill="#343B4C"/><path d="m417 112.089844h-410c-3.867188 0-7-3.132813-7-7 0-3.863282 3.132812-7 7-7h410c3.867188 0 7 3.136718 7 7 0 3.867187-3.132812 7-7 7zm0 0" data-original="#000000" class="active-path" data-old_color="#000000" fill="#343B4C"/><path d="m119.601562 78.59375c-12.210937 0-22.152343-9.941406-22.152343-22.152344 0-12.214844 9.941406-22.152344 22.152343-22.152344 12.214844 0 22.152344 9.9375 22.152344 22.152344 0 12.210938-9.9375 22.152344-22.152344 22.152344zm0-30.304688c-4.492187 0-8.152343 3.65625-8.152343 8.152344s3.660156 8.152344 8.152343 8.152344c4.496094 0 8.152344-3.65625 8.152344-8.152344s-3.65625-8.152344-8.152344-8.152344zm0 0" data-original="#000000" class="active-path" data-old_color="#000000" fill="#343B4C"/><path d="m51.539062 78.378906c-12.214843 0-22.152343-9.9375-22.152343-22.152344 0-12.214843 9.9375-22.152343 22.152343-22.152343 12.214844 0 22.152344 9.9375 22.152344 22.152343 0 12.214844-9.9375 22.152344-22.152344 22.152344zm0-30.304687c-4.492187 0-8.152343 3.660156-8.152343 8.152343 0 4.496094 3.660156 8.152344 8.152343 8.152344 4.496094 0 8.152344-3.65625 8.152344-8.152344 0-4.492187-3.65625-8.152343-8.152344-8.152343zm0 0" data-original="#000000" class="active-path" data-old_color="#000000" fill="#343B4C"/><path d="m187.664062 78.804688c-12.210937 0-22.148437-9.9375-22.148437-22.152344 0-12.210938 9.9375-22.148438 22.148437-22.148438 12.214844 0 22.152344 9.9375 22.152344 22.148438 0 12.214844-9.9375 22.152344-22.152344 22.152344zm0-30.304688c-4.492187 0-8.148437 3.65625-8.148437 8.152344s3.65625 8.152344 8.148437 8.152344c4.496094 0 8.152344-3.65625 8.152344-8.152344s-3.65625-8.152344-8.152344-8.152344zm0 0" data-original="#000000" class="active-path" data-old_color="#000000" fill="#343B4C"/></g> </svg>
