<?xml version="1.0"?>
<svg xmlns="http://www.w3.org/2000/svg" height="512px" viewBox="1 -24 459.744 459" width="512px"><g><path d="m108.46875 410.589844c-15.507812 0-28.121094-12.617188-28.121094-28.121094 0-15.507812 12.613282-28.121094 28.121094-28.121094 15.503906 0 28.121094 12.613282 28.121094 28.121094 0 15.503906-12.617188 28.121094-28.121094 28.121094zm0-42.238282c-7.785156 0-14.117188 6.332032-14.117188 14.113282s6.332032 14.113281 14.117188 14.113281c7.78125 0 14.113281-6.332031 14.113281-14.113281s-6.332031-14.113282-14.113281-14.113282zm0 0" data-original="#000000" class="active-path" data-old_color="#000000" fill="#28BC00"/><path d="m203.519531 410.589844c-15.503906 0-28.121093-12.617188-28.121093-28.121094 0-15.507812 12.617187-28.121094 28.121093-28.121094 15.507813 0 28.125 12.613282 28.125 28.121094 0 15.503906-12.617187 28.121094-28.125 28.121094zm0-42.238282c-7.78125 0-14.113281 6.332032-14.113281 14.113282s6.332031 14.113281 14.113281 14.113281c7.785157 0 14.117188-6.332031 14.117188-14.113281s-6.332031-14.113282-14.117188-14.113282zm0 0" data-original="#000000" class="active-path" data-old_color="#000000" fill="#28BC00"/><path d="m238.269531 342.851562h-135.875c-14.898437-.003906-27.402343-10.683593-29.730469-25.398437-.007812-.042969-.011718-.089844-.019531-.136719l-21.980469-158.796875c-1.273437-7.835937-7.945312-13.519531-15.894531-13.519531h-27.765625c-3.867187 0-7.003906-3.136719-7.003906-7.003906 0-3.867188 3.136719-7.003906 7.003906-7.003906h27.765625c14.902344 0 27.40625 10.683593 29.738281 25.398437.007813.046875.015626.089844.019532.136719l21.980468 158.796875c1.273438 7.835937 7.945313 13.519531 15.886719 13.519531h135.875c3.867188 0 7.003907 3.136719 7.003907 7.003906 0 3.867188-3.132813 7.003906-7.003907 7.003906zm0 0" data-original="#000000" class="active-path" data-old_color="#000000" fill="#28BC00"/><path d="m219.503906 274.472656c-.003906 0-.007812 0-.007812 0h-146.75c-3.871094 0-7.003906-3.136718-7.003906-7.003906s3.132812-7.003906 7.003906-7.003906h146.75.003906c6.855469 0 12.96875-4.351563 15.210938-10.828125l22.601562-65.214844h-196.105469c-3.867187 0-7.003906-3.132813-7.003906-7.003906 0-3.867188 3.136719-7.003907 7.003906-7.003907h205.945313c2.265625 0 4.390625 1.097657 5.707031 2.945313 1.3125 1.84375 1.652344 4.210937.910156 6.351563l-25.824219 74.511718c-4.195312 12.113282-15.625 20.25-28.441406 20.25zm0 0" data-original="#000000" class="active-path" data-old_color="#000000" fill="#28BC00"/><path d="m412.972656 314.5625h-261.726562c-25.933594 0-47.027344-21.097656-47.027344-47.027344 0-3.867187 3.136719-7.003906 7.003906-7.003906 3.867188 0 7.003906 3.136719 7.003906 7.003906 0 18.207032 14.8125 33.019532 33.019532 33.019532h261.726562c18.207032 0 33.019532-14.8125 33.019532-33.019532v-220.125c0-18.203125-14.8125-33.015625-33.019532-33.015625h-261.726562c-18.207032 0-33.019532 14.8125-33.019532 33.015625v130.074219c0 3.867187-3.136718 7.003906-7.003906 7.003906-3.867187 0-7.003906-3.136719-7.003906-7.003906v-130.074219c0-25.929687 21.09375-47.023437 47.027344-47.023437h261.726562c25.929688 0 47.027344 21.09375 47.027344 47.023437v220.125c0 25.929688-21.097656 47.027344-47.027344 47.027344zm0 0" data-original="#000000" class="active-path" data-old_color="#000000" fill="#28BC00"/><path d="m452.996094 96.164062h-341.773438c-3.867187 0-7.003906-3.136718-7.003906-7.003906 0-3.867187 3.136719-7.003906 7.003906-7.003906h341.773438c3.867187 0 7.003906 3.136719 7.003906 7.003906 0 3.867188-3.136719 7.003906-7.003906 7.003906zm0 0" data-original="#000000" class="active-path" data-old_color="#000000" fill="#28BC00"/><path d="m205.085938 68.238281c-10.824219 0-19.632813-8.808593-19.632813-19.632812 0-10.828125 8.808594-19.636719 19.632813-19.636719 10.828124 0 19.636718 8.808594 19.636718 19.636719 0 10.824219-8.808594 19.632812-19.636718 19.632812zm0-25.261719c-3.101563 0-5.625 2.523438-5.625 5.628907 0 3.101562 2.523437 5.625 5.625 5.625 3.105468 0 5.628906-2.523438 5.628906-5.625 0-3.105469-2.523438-5.628907-5.628906-5.628907zm0 0" data-original="#000000" class="active-path" data-old_color="#000000" fill="#28BC00"/><path d="m148.347656 68.0625c-10.824218 0-19.632812-8.808594-19.632812-19.636719s8.808594-19.632812 19.632812-19.632812c10.828125 0 19.636719 8.804687 19.636719 19.632812s-8.808594 19.636719-19.636719 19.636719zm0-25.261719c-3.101562 0-5.625 2.523438-5.625 5.625 0 3.105469 2.523438 5.628907 5.625 5.628907 3.105469 0 5.628906-2.523438 5.628906-5.628907 0-3.101562-2.523437-5.625-5.628906-5.625zm0 0" data-original="#000000" class="active-path" data-old_color="#000000" fill="#28BC00"/><path d="m261.824219 68.417969c-10.828125 0-19.636719-8.808594-19.636719-19.636719s8.808594-19.632812 19.636719-19.632812c10.824219 0 19.632812 8.804687 19.632812 19.632812s-8.808593 19.636719-19.632812 19.636719zm0-25.261719c-3.105469 0-5.628907 2.523438-5.628907 5.625s2.523438 5.628906 5.628907 5.628906c3.101562 0 5.625-2.527344 5.625-5.628906s-2.523438-5.625-5.625-5.625zm0 0" data-original="#000000" class="active-path" data-old_color="#000000" fill="#28BC00"/></g> </svg>
