<?xml version="1.0"?>
<svg xmlns="http://www.w3.org/2000/svg" height="512px" viewBox="0 -25 424 424" width="512px"><g><path d="m227.800781 204.65625h-22.453125c-3.867187 0-7-3.132812-7-7 0-3.863281 3.132813-7 7-7h22.453125c3.867188 0 7 3.136719 7 7 0 3.867188-3.132812 7-7 7zm0 0" data-original="#000000" class="active-path" data-old_color="#000000" fill="#FFC000"/><path d="m305.207031 151.585938h-186.414062c-3.867188 0-7-3.136719-7-7 0-3.867188 3.132812-7 7-7h186.414062c3.867188 0 7 3.132812 7 7 0 3.863281-3.132812 7-7 7zm0 0" data-original="#000000" class="active-path" data-old_color="#000000" fill="#FFC000"/><path d="m176.898438 204.65625h-58.105469c-3.867188 0-7-3.132812-7-7 0-3.863281 3.132812-7 7-7h58.105469c3.867187 0 7 3.136719 7 7 0 3.867188-3.132813 7-7 7zm0 0" data-original="#000000" class="active-path" data-old_color="#000000" fill="#FFC000"/><path d="m232 335.65625h-40c-3.867188 0-7-3.132812-7-7v-71c0-3.863281 3.132812-7 7-7h40c3.867188 0 7 3.136719 7 7v71c0 3.867188-3.132812 7-7 7zm-33-14h26v-57h-26zm0 0" data-original="#000000" class="active-path" data-old_color="#000000" fill="#FFC000"/><path d="m152 335.65625h-40c-3.867188 0-7-3.132812-7-7v-31c0-3.863281 3.132812-7 7-7h40c3.867188 0 7 3.136719 7 7v31c0 3.867188-3.132812 7-7 7zm-33-14h26v-17h-26zm0 0" data-original="#000000" class="active-path" data-old_color="#000000" fill="#FFC000"/><path d="m312 335.65625h-40c-3.867188 0-7-3.132812-7-7v-131c0-3.863281 3.132812-7 7-7h40c3.867188 0 7 3.136719 7 7v131c0 3.867188-3.132812 7-7 7zm-33-14h26v-117h-26zm0 0" data-original="#000000" class="active-path" data-old_color="#000000" fill="#FFC000"/><path d="m156.898438 257.730469h-38.105469c-3.867188 0-7-3.132813-7-7 0-3.863281 3.132812-7 7-7h38.105469c3.867187 0 7 3.136719 7 7 0 3.867187-3.132813 7-7 7zm0 0" data-original="#000000" class="active-path" data-old_color="#000000" fill="#FFC000"/><path d="m377 374.085938h-330c-25.914062 0-47-21.082032-47-47v-280.085938c0-25.914062 21.085938-47 47-47h330c25.914062 0 47 21.085938 47 47v280.085938c0 25.917968-21.085938 47-47 47zm-330-360.085938c-18.195312 0-33 14.804688-33 33v280.085938c0 18.195312 14.804688 33 33 33h330c18.195312 0 33-14.804688 33-33v-280.085938c0-18.195312-14.804688-33-33-33zm0 0" data-original="#000000" class="active-path" data-old_color="#000000" fill="#FFC000"/><path d="m417 112.089844h-410c-3.867188 0-7-3.132813-7-7 0-3.863282 3.132812-7 7-7h410c3.867188 0 7 3.136718 7 7 0 3.867187-3.132812 7-7 7zm0 0" data-original="#000000" class="active-path" data-old_color="#000000" fill="#FFC000"/><path d="m119.601562 78.59375c-12.210937 0-22.152343-9.941406-22.152343-22.152344 0-12.214844 9.941406-22.152344 22.152343-22.152344 12.214844 0 22.152344 9.9375 22.152344 22.152344 0 12.210938-9.9375 22.152344-22.152344 22.152344zm0-30.304688c-4.492187 0-8.152343 3.65625-8.152343 8.152344s3.660156 8.152344 8.152343 8.152344c4.496094 0 8.152344-3.65625 8.152344-8.152344s-3.65625-8.152344-8.152344-8.152344zm0 0" data-original="#000000" class="active-path" data-old_color="#000000" fill="#FFC000"/><path d="m51.539062 78.378906c-12.214843 0-22.152343-9.9375-22.152343-22.152344 0-12.214843 9.9375-22.152343 22.152343-22.152343 12.214844 0 22.152344 9.9375 22.152344 22.152343 0 12.214844-9.9375 22.152344-22.152344 22.152344zm0-30.304687c-4.492187 0-8.152343 3.660156-8.152343 8.152343 0 4.496094 3.660156 8.152344 8.152343 8.152344 4.496094 0 8.152344-3.65625 8.152344-8.152344 0-4.492187-3.65625-8.152343-8.152344-8.152343zm0 0" data-original="#000000" class="active-path" data-old_color="#000000" fill="#FFC000"/><path d="m187.664062 78.804688c-12.210937 0-22.148437-9.9375-22.148437-22.152344 0-12.210938 9.9375-22.148438 22.148437-22.148438 12.214844 0 22.152344 9.9375 22.152344 22.148438 0 12.214844-9.9375 22.152344-22.152344 22.152344zm0-30.304688c-4.492187 0-8.148437 3.65625-8.148437 8.152344s3.65625 8.152344 8.148437 8.152344c4.496094 0 8.152344-3.65625 8.152344-8.152344s-3.65625-8.152344-8.152344-8.152344zm0 0" data-original="#000000" class="active-path" data-old_color="#000000" fill="#FFC000"/></g> </svg>
