<?xml version="1.0"?>
<svg xmlns="http://www.w3.org/2000/svg" height="512px" viewBox="0 -28 439.22702 439" width="512px"><g><path d="m280.332031 372.171875c-6.980469 0-13.984375-1.753906-20.511719-5.347656-1.925781-1.0625-3.242187-2.96875-3.550781-5.148438-.308593-2.175781.425781-4.375 1.976563-5.929687l16.433594-16.429688-.230469-5.105468-4.96875-.148438-16.476563 16.28125c-1.507812 1.492188-3.617187 2.222656-5.722656 1.972656-2.109375-.242187-3.996094-1.433594-5.121094-3.230468-11.246094-17.941407-8.773437-38.542969 6.453125-53.765626 11.082031-11.082031 28.148438-15.53125 43.671875-11.707031l43.734375-43.734375c-6.523437-16.351562-2.644531-34.140625 10.683594-47.464844 14.683594-14.421874 35.207031-17.617187 52.328125-8.1875 1.925781 1.0625 3.242188 2.96875 3.550781 5.144532.3125 2.179687-.421875 4.375-1.976562 5.929687l-16.429688 16.429688.226563 5.105469 4.96875.152343 16.476562-16.285156c1.527344-1.507813 3.660156-2.226563 5.792969-1.964844 2.128906.269531 4.019531 1.503907 5.125 3.34375 10.957031 18.261719 8.363281 38.304688-6.941406 53.625-12.476563 12.707031-30.015625 15.023438-43.480469 11.730469l-43.511719 43.515625c6.523438 16.351563 2.644531 34.136719-10.679687 47.460937-9.054688 9.054688-20.402344 13.757813-31.820313 13.757813zm-4.386719-14.328125c9.207032 1.503906 18.71875-1.726562 26.3125-9.320312 10.109376-10.109376 12.410157-23.8125 6.007813-35.753907-1.460937-2.71875-.964844-6.070312 1.214844-8.253906l49.921875-49.921875c1.917968-1.917969 4.777344-2.550781 7.328125-1.628906 9.308593 3.371094 23.644531 2.59375 33.128906-7.078125.015625-.015625.03125-.03125.050781-.050781 8.257813-8.257813 11.175782-18.128907 8.535156-28.023438l-11.371093 11.238281c-1.359375 1.34375-3.191407 2.0625-5.128907 2.015625l-14.453124-.4375c-3.65625-.113281-6.613282-3.023437-6.777344-6.679687l-.65625-14.671875c-.085938-1.964844.652344-3.871094 2.042968-5.261719l10.816407-10.8125c-9.210938-1.519531-18.726563 1.648437-26.363281 9.148437-10.066407 10.066407-12.367188 23.765626-5.960938 35.710938 1.457031 2.71875.960938 6.070312-1.222656 8.253906l-50.136719 50.136719c-1.910156 1.910156-4.75 2.546875-7.292969 1.644531-11.425781-4.0625-25.175781-1.140625-33.429687 7.117188-8.351563 8.347656-11.171875 18.285156-8.269531 28.1875l11.539062-11.402344c1.363281-1.34375 3.222656-2.0625 5.132812-2.015625l14.449219.4375c3.660157.109375 6.613281 3.023437 6.777344 6.679687l.65625 14.671876c.089844 1.960937-.652344 3.871093-2.042969 5.257812zm0 0" data-original="#000000" class="active-path" data-old_color="#000000" fill="#343B4C"/><path d="m402.664062 383.234375c-1.789062 0-3.582031-.683594-4.945312-2.046875l-51.015625-51.015625c-2.730469-2.730469-2.730469-7.160156 0-9.894531 2.730469-2.730469 7.160156-2.730469 9.894531 0l46.085938 46.085937 19.40625-19.261719-46.269532-46.265624c-2.730468-2.734376-2.730468-7.164063 0-9.894532 2.734376-2.730468 7.164063-2.730468 9.894532 0l51.234375 51.230469c1.316406 1.316406 2.054687 3.101563 2.050781 4.960937-.003906 1.859376-.75 3.644532-2.066406 4.953126l-29.339844 29.121093c-1.363281 1.351563-3.148438 2.027344-4.929688 2.027344zm0 0" data-original="#000000" class="active-path" data-old_color="#000000" fill="#343B4C"/><path d="m336.980469 346.015625c-1.792969 0-3.589844-.6875-4.957031-2.058594-2.726563-2.738281-2.71875-7.167969.019531-9.894531l56.925781-56.707031c2.738281-2.726563 7.167969-2.71875 9.894531.019531 2.726563 2.738281 2.71875 7.167969-.019531 9.894531l-56.925781 56.703125c-1.363281 1.363282-3.152344 2.042969-4.9375 2.042969zm0 0" data-original="#000000" class="active-path" data-old_color="#000000" fill="#343B4C"/><path d="m320.996094 271.792969c-1.789063 0-3.578125-.683594-4.945313-2.050781l-37.808593-37.808594c-.023438-.023438-.046876-.046875-.070313-.070313l-1.75-1.75c-2.730469-2.734375-2.730469-7.164062 0-9.894531 2.734375-2.730469 7.164063-2.730469 9.894531 0l39.628906 39.632812c2.730469 2.730469 2.730469 7.160157 0 9.890626-1.367187 1.367187-3.15625 2.050781-4.949218 2.050781zm0 0" data-original="#000000" class="active-path" data-old_color="#000000" fill="#343B4C"/><path d="m366.320312 316.894531c-1.78125 0-3.5625-.675781-4.925781-2.027343l-26.273437-26.054688c-2.746094-2.722656-2.765625-7.148438-.042969-9.894531 2.722656-2.742188 7.148437-2.761719 9.894531-.039063l26.273438 26.054688c2.742187 2.71875 2.761718 7.148437.042968 9.890625-1.371093 1.378906-3.167968 2.070312-4.96875 2.070312zm0 0" data-original="#000000" class="active-path" data-old_color="#000000" fill="#343B4C"/><path d="m273.785156 239.6875c-1.792968 0-3.582031-.683594-4.949218-2.050781l-26.316407-26.316407c-2.734375-2.734374-2.734375-7.164062 0-9.894531l14.550781-14.554687c1.3125-1.3125 3.09375-2.046875 4.949219-2.046875 1.851563 0 3.632813.734375 4.945313 2.046875l26.320312 26.320312c1.3125 1.3125 2.046875 3.09375 2.046875 4.949219 0 1.851563-.734375 3.632813-2.046875 4.945313l-14.554687 14.550781c-1.367188 1.367187-3.15625 2.050781-4.945313 2.050781zm-16.425781-33.316406 16.425781 16.425781 4.65625-4.65625-16.425781-16.425781zm0 0" data-original="#000000" class="active-path" data-old_color="#000000" fill="#343B4C"/><path d="m249.007812 312.542969h-202.03125c-25.902343 0-46.976562-21.070313-46.976562-46.972657v-218.496093c0-25.902344 21.074219-46.9765628 46.976562-46.9765628h259.863282c25.902344 0 46.976562 21.0742188 46.976562 46.9765628v156.03125c0 3.863281-3.132812 6.996093-6.996094 6.996093-3.863281 0-6.996093-3.132812-6.996093-6.996093v-156.03125c0-18.1875-14.796875-32.984375-32.984375-32.984375h-259.863282c-18.1875 0-32.984374 14.796875-32.984374 32.984375v218.496093c0 18.183594 14.796874 32.980469 32.984374 32.980469h202.03125c3.863282 0 6.996094 3.132813 6.996094 6.996094 0 3.867187-3.132812 6.996094-6.996094 6.996094zm0 0" data-original="#000000" class="active-path" data-old_color="#000000" fill="#343B4C"/><path d="m346.820312 95.394531h-339.824218c-3.863282 0-6.996094-3.132812-6.996094-6.996093 0-3.867188 3.132812-6.996094 6.996094-6.996094h339.824218c3.863282 0 6.996094 3.128906 6.996094 6.996094 0 3.863281-3.132812 6.996093-6.996094 6.996093zm0 0" data-original="#000000" class="active-path" data-old_color="#000000" fill="#343B4C"/><path d="m100.324219 67.628906c-10.78125 0-19.554688-8.773437-19.554688-19.554687s8.773438-19.554688 19.554688-19.554688c10.785156 0 19.554687 8.773438 19.554687 19.554688s-8.769531 19.554687-19.554687 19.554687zm0-25.117187c-3.066407 0-5.558594 2.496093-5.558594 5.5625 0 3.066406 2.492187 5.5625 5.558594 5.5625 3.066406 0 5.5625-2.496094 5.5625-5.5625 0-3.066407-2.496094-5.5625-5.5625-5.5625zm0 0" data-original="#000000" class="active-path" data-old_color="#000000" fill="#343B4C"/><path d="m43.914062 67.453125c-10.785156 0-19.554687-8.773437-19.554687-19.554687 0-10.785157 8.769531-19.554688 19.554687-19.554688 10.78125 0 19.554688 8.773438 19.554688 19.554688s-8.773438 19.554687-19.554688 19.554687zm0-25.117187c-3.066406 0-5.5625 2.496093-5.5625 5.5625 0 3.066406 2.496094 5.5625 5.5625 5.5625 3.066407 0 5.5625-2.496094 5.5625-5.5625 0-3.066407-2.496093-5.5625-5.5625-5.5625zm0 0" data-original="#000000" class="active-path" data-old_color="#000000" fill="#343B4C"/><path d="m156.738281 67.804688c-10.78125 0-19.554687-8.769532-19.554687-19.554688 0-10.78125 8.773437-19.554688 19.554687-19.554688 10.785157 0 19.554688 8.773438 19.554688 19.554688 0 10.785156-8.769531 19.554688-19.554688 19.554688zm0-25.117188c-3.066406 0-5.5625 2.496094-5.5625 5.5625 0 3.070312 2.496094 5.5625 5.5625 5.5625 3.070313 0 5.5625-2.496094 5.5625-5.5625s-2.492187-5.5625-5.5625-5.5625zm0 0" data-original="#000000" class="active-path" data-old_color="#000000" fill="#343B4C"/></g> </svg>
